<svg width="66" height="33" viewBox="0 0 66 33" fill="none" xmlns="http://www.w3.org/2000/svg">
<path fill-rule="evenodd" clip-rule="evenodd" d="M65.56 28.9734V3.12636C65.3838 1.75016 64.3109 0.653999 62.9447 0.440002H3.08077C1.58456 0.674434 0.440002 1.9666 0.440002 3.52607V28.5737C0.440002 30.2991 1.84132 31.6976 3.56979 31.6976H62.4559C64.0486 31.6976 65.3634 30.5099 65.56 28.9734Z" fill="#9F7AEA"/>
<path fill-rule="evenodd" clip-rule="evenodd" d="M9.43277 6.61084H14.3546V25.5577H9.43277V6.61084Z" fill="white"/>
<g opacity="0.3">
<path opacity="0.3" d="M14.3546 6.61089V25.5577H9.43276V6.61089H14.3546ZM14.7887 6.17676H14.3546H9.43276H8.99863V6.61089V25.5577V25.9918H9.43276H14.3546H14.7887V25.5577V6.61089V6.17676Z" fill="#FBFBED"/>
</g>
<path fill-rule="evenodd" clip-rule="evenodd" d="M24.8513 6.61084L23.7114 15.4622L23.0063 10.6489C22.8007 9.10404 22.6041 7.75791 22.4165 6.61084H16.0353V25.5577H20.3463L20.3618 13.0475L22.1762 25.5577H25.2467L26.9681 12.769L26.9836 25.5577H31.2809V6.61084H24.8513Z" fill="white"/>
<g opacity="0.3">
<path opacity="0.3" d="M31.2809 6.61083V25.5576H26.9836L26.968 12.769L25.2467 25.5576H22.1761L20.3618 13.0475L20.3463 25.5576H16.0353V6.61083H22.4165C22.6041 7.75787 22.8007 9.104 23.0063 10.6489L23.7114 15.4622L24.8513 6.61083H31.2809ZM31.715 6.1767H31.2809H24.8513H24.4695L24.4207 6.55538L23.6837 12.2783L23.4362 10.5889C23.2311 9.04753 23.0321 7.68556 22.8449 6.54078L22.7854 6.17673H22.4165H16.0353H15.6012V6.61086V25.5577V25.9918H16.0353H20.3463H20.7798L20.7804 25.5582L20.7885 19.0146L21.7465 25.62L21.8004 25.9918H22.1761H25.2467H25.6263L25.677 25.6156L26.5417 19.1911L26.5494 25.5582L26.5499 25.9918H26.9836H31.2809H31.715V25.5577V6.61089V6.1767Z" fill="#FBFBED"/>
</g>
<path fill-rule="evenodd" clip-rule="evenodd" d="M38.9777 10.0206C39.1722 10.1332 39.2968 10.3109 39.3511 10.5518C39.4054 10.7934 39.433 11.3422 39.433 12.1987V19.544C39.433 20.8054 39.3511 21.5779 39.1877 21.8619C39.0242 22.1466 38.5886 22.2883 37.8813 22.2883V9.8513C38.4174 9.8513 38.7833 9.90774 38.9777 10.0206ZM38.9269 25.5576C40.1059 25.5576 40.9884 25.4935 41.5745 25.3648C42.1603 25.2364 42.652 25.0103 43.0508 24.6872C43.449 24.364 43.7281 23.9163 43.8884 23.3432C44.0484 22.7711 44.1436 21.6352 44.1436 19.9371V13.2831C44.1436 11.4911 44.0735 10.2894 43.9644 9.67793C43.8549 9.06673 43.5817 8.51166 43.1442 8.01303C42.7069 7.5144 42.0681 7.15624 41.2284 6.93824C40.389 6.72024 39.0184 6.61078 36.6362 6.61078H32.9641V25.5576H38.9269V25.5576Z" fill="white"/>
<g opacity="0.3">
<path opacity="0.3" d="M36.6362 6.61083C39.0184 6.61083 40.389 6.72029 41.2284 6.93829C42.0682 7.15629 42.707 7.51445 43.1442 8.01308C43.5817 8.51171 43.8549 9.06678 43.9644 9.67798C44.0735 10.2895 44.1436 11.4911 44.1436 13.2832V19.9372C44.1436 21.6353 44.0484 22.7712 43.8884 23.3433C43.7281 23.9163 43.449 24.3641 43.0508 24.6872C42.6521 25.0103 42.1603 25.2364 41.5745 25.3648C40.9884 25.4935 40.1059 25.5577 38.9269 25.5577H32.9641V6.61086H36.6362V6.61083ZM37.8813 22.2883C38.5886 22.2883 39.0242 22.1466 39.1877 21.8619C39.3511 21.5779 39.433 20.8054 39.433 19.544V12.1987C39.433 11.3423 39.4054 10.7934 39.3511 10.5518C39.2968 10.3109 39.1721 10.1332 38.9777 10.0206C38.7833 9.90776 38.4174 9.85133 37.8813 9.85133V22.2883ZM36.6362 6.1767H32.9641H32.5299V6.61083V25.5577V25.9918H32.9641H38.9269C40.1491 25.9918 41.0456 25.9254 41.6676 25.7888C42.3163 25.6467 42.8737 25.3895 43.3242 25.0246C43.7919 24.6449 44.1223 24.1187 44.3065 23.4602C44.4865 22.8167 44.5778 21.6314 44.5778 19.9372V13.2832C44.5778 11.5564 44.5134 10.2834 44.3918 9.60173C44.2686 8.91372 43.9586 8.28299 43.4705 7.72677C42.9772 7.16413 42.2595 6.75747 41.3375 6.51811C40.4284 6.28197 38.9784 6.1767 36.6362 6.1767ZM38.3154 21.8302V10.3018C38.6161 10.3278 38.7274 10.3773 38.7598 10.3961C38.8196 10.4307 38.8922 10.4903 38.9276 10.6472C38.9542 10.7655 38.9988 11.1247 38.9988 12.1987V19.544C38.9988 21.1916 38.8554 21.569 38.8114 21.6454C38.8017 21.6623 38.7209 21.7791 38.3154 21.8302Z" fill="#FBFBED"/>
</g>
<path fill-rule="evenodd" clip-rule="evenodd" d="M52.2213 20.9602C52.2213 21.8771 52.1757 22.4564 52.0849 22.6973C51.9937 22.9386 51.5974 23.0598 51.2969 23.0598C51.0039 23.0598 50.8085 22.9436 50.7093 22.7101C50.6104 22.4769 50.5613 21.9445 50.5613 21.1122V16.105C50.5613 15.2417 50.6047 14.7037 50.6919 14.4894C50.7787 14.2761 50.9685 14.1688 51.2612 14.1688C51.5614 14.1688 51.9642 14.2907 52.0672 14.5356C52.1698 14.7806 52.2213 15.3037 52.2213 16.1044V20.9602ZM45.82 6.61084V25.5577H50.251L50.5576 24.3505C50.9583 24.8358 51.4002 25.1998 51.8836 25.4423C52.3667 25.6848 53.0884 25.8057 53.6462 25.8057C54.4242 25.8057 55.0959 25.6014 55.6618 25.1933C56.2274 24.7849 56.5871 24.3021 56.7406 23.7458C56.8938 23.1892 56.9704 22.3435 56.9704 21.2073V15.8917C56.9704 14.7477 56.9447 14.001 56.8938 13.6509C56.8423 13.3008 56.6916 12.943 56.4405 12.5774C56.189 12.2121 55.824 11.928 55.3446 11.7256C54.8655 11.5227 54.3005 11.4217 53.6487 11.4217C53.0831 11.4217 52.3581 11.5342 51.8749 11.7575C51.3918 11.9808 50.954 12.3197 50.5614 12.774V6.61084H45.82Z" fill="white"/>
<g opacity="0.3">
<path opacity="0.3" d="M50.5613 6.61083V12.774C50.9539 12.3197 51.3917 11.9807 51.8749 11.7575C52.358 11.5342 53.083 11.4216 53.6486 11.4216C54.3005 11.4216 54.8654 11.5227 55.3445 11.7255C55.8239 11.928 56.1889 12.2121 56.4404 12.5774C56.6916 12.943 56.8423 13.3008 56.8937 13.6509C56.9446 14.001 56.9703 14.7477 56.9703 15.8917V21.2073C56.9703 22.3435 56.8937 23.1891 56.7406 23.7458C56.5871 24.302 56.2273 24.7849 55.6617 25.1933C55.0958 25.6014 54.4241 25.8057 53.6461 25.8057C53.0883 25.8057 52.3667 25.6848 51.8835 25.4423C51.4001 25.1998 50.9582 24.8357 50.5576 24.3504L50.2509 25.5576H45.82V6.61083H50.5613ZM51.2969 23.0598C51.5974 23.0598 51.9936 22.9386 52.0848 22.6973C52.1757 22.4564 52.2212 21.8772 52.2212 20.9602V16.1044C52.2212 15.3037 52.1698 14.7806 52.0671 14.5356C51.9642 14.2906 51.5613 14.1688 51.2612 14.1688C50.9685 14.1688 50.7787 14.2761 50.6918 14.4894C50.6047 14.7037 50.5613 15.2417 50.5613 16.105V21.1122C50.5613 21.9445 50.6103 22.4769 50.7092 22.71C50.8085 22.9435 51.0038 23.0598 51.2969 23.0598ZM50.9954 6.1767H50.5613H45.82H45.3858V6.61083V25.5576V25.9918H45.82H50.2509H50.5886L50.6717 25.6645L50.7864 25.2133C51.0707 25.4651 51.3725 25.6716 51.6889 25.8303C52.2912 26.1326 53.1197 26.2398 53.6462 26.2398C54.5131 26.2398 55.2767 26.0062 55.9157 25.5454C56.561 25.0795 56.9793 24.5128 57.1591 23.8612C57.3243 23.261 57.4045 22.3929 57.4045 21.2073V15.8916C57.4045 14.7175 57.378 13.9641 57.3234 13.5885C57.2622 13.1724 57.0856 12.7498 56.7982 12.3315C56.4997 11.898 56.0676 11.5596 55.5134 11.3256C54.9835 11.1013 54.356 10.9875 53.6486 10.9875C53.1216 10.9875 52.2931 11.0859 51.6927 11.3633C51.4505 11.4753 51.2177 11.6138 50.9954 11.778V6.61083V6.1767ZM51.2969 22.6257C51.1451 22.6257 51.1275 22.5842 51.1088 22.5402C51.0823 22.4778 50.9955 22.1893 50.9955 21.1121V16.105C50.9955 14.9826 51.0709 14.7098 51.094 14.6529C51.1021 14.6332 51.1072 14.6303 51.1125 14.6273C51.1227 14.6216 51.1634 14.6029 51.2612 14.6029C51.4563 14.6029 51.628 14.6749 51.6718 14.7162C51.71 14.8177 51.7872 15.1425 51.7872 16.1044V20.9602C51.7872 22.0552 51.7207 22.4122 51.6854 22.5244C51.6377 22.5627 51.4765 22.6257 51.2969 22.6257Z" fill="#FBFBED"/>
</g>
</svg>
