<svg width="32" height="32" viewBox="0 0 32 32" fill="none" xmlns="http://www.w3.org/2000/svg">
<g clip-path="url(#clip0)">
<path d="M15.8545 30.9818C24.2091 30.9818 30.9818 24.2091 30.9818 15.8545C30.9818 7.49994 24.2091 0.727234 15.8545 0.727234C7.49994 0.727234 0.727234 7.49994 0.727234 15.8545C0.727234 24.2091 7.49994 30.9818 15.8545 30.9818Z" fill="#9F7AEA" stroke="#6B46C1" stroke-width="1.67273"/>
<path d="M3.86963 18.7608L6.2162 16.2798L7.62559 17.581C7.37005 15.6823 7.82212 14.1198 8.98181 12.8937C9.5979 12.2423 10.2685 11.8027 10.9937 11.575C11.7189 11.3473 12.5018 11.3344 13.3425 11.5364C13.2145 10.5809 13.2591 9.71883 13.4762 8.95026C13.6932 8.18173 14.0796 7.50369 14.6353 6.91614C15.342 6.16897 16.0939 5.67881 16.8909 5.44567C17.688 5.21258 18.5054 5.24349 19.3431 5.5384C19.9589 5.76003 20.7593 6.32551 21.7443 7.23482L28.3441 13.328L25.7982 16.0198L19.8982 10.5727C18.8744 9.62751 18.1258 9.1099 17.6526 9.01989C17.0282 8.91002 16.4714 9.11372 15.9822 9.63099C15.6258 10.0078 15.4072 10.4699 15.3264 11.0174C15.2456 11.5648 15.3609 12.1199 15.6724 12.6825C15.9838 13.2452 16.6255 13.9752 17.5975 14.8726L22.5547 19.4492L20.0088 22.141L14.3518 16.9183C13.3474 15.991 12.6541 15.4407 12.2719 15.2672C11.8897 15.0938 11.5322 15.0419 11.1994 15.1114C10.8666 15.181 10.5371 15.3882 10.2109 15.733C9.81829 16.1482 9.57834 16.6264 9.49106 17.1679C9.40377 17.7094 9.50602 18.2494 9.7978 18.7879C10.0896 19.3265 10.7312 20.0534 11.7226 20.9687L16.7381 25.5991L14.1922 28.2909L3.86963 18.7608Z" fill="white"/>
</g>
<defs>
<clipPath id="clip0">
<path d="M0 0H32V32H0V0Z" fill="white"/>
</clipPath>
</defs>
</svg>
