<svg width="32" height="33" viewBox="0 0 32 33" fill="none" xmlns="http://www.w3.org/2000/svg">
<path d="M4.60154 9.32205C-1.8254 15.6287 1.48339 23.252 3.29236 25.7452C11.3415 35.3241 24.4785 31.5306 28.8389 24.3965C29.9259 22.5237 33.9884 12.189 23.3648 6.58563L4.60154 9.32205Z" fill="#9F7AEA"/>
<path d="M9.04437 8.96493L10.1352 6.94186L16.6209 5.7915L19.1595 7.89391L9.04437 8.96493Z" fill="#F56565"/>
<path d="M9.00398 1.9566L11.0516 0.750488L12.5943 4.28463C13.4602 2.84106 15.7428 0.559386 18.2883 3.21875C17.2088 3.50725 16.5723 4.09899 16.5212 5.15416C19.9791 4.20214 23.6774 5.88768 24.1788 7.22983C21.6785 6.24486 17.8555 9.59909 14.6417 7.76272C14.6438 11.1978 11.761 11.561 10.0977 11.6615C10.5719 10.5208 11.3742 9.37968 10.4343 8.23968C8.69493 10.1053 7.26657 10.6754 2.86093 9.30547C3.97421 8.92212 6.24986 6.70492 8.44286 6.69693C6.89601 6.13367 5.63683 6.22043 4.3756 6.36016C5.0416 5.45579 7.14944 2.8904 10.9112 4.42493L9.00398 1.9566Z" fill="#6B46C1"/>
</svg>
